<svg width="47" height="48" fill="none" xmlns="http://www.w3.org/2000/svg"><path d="M46 25.24c0 11.706-9.41 21.182-21 21.182S4 36.946 4 25.24C4 13.534 13.41 4.06 25 4.06s21 9.475 21 21.181z" stroke="#F26422" stroke-width="2"/><path d="M21.452 35.973v-8.586m0 0v-12.88h4.915a6.44 6.44 0 1 1 0 12.88h-4.915z" stroke="#3C3C3B" stroke-width="2" stroke-linecap="round" stroke-linejoin="round"/><path stroke="#F26422" stroke-width="2" stroke-linecap="round" stroke-linejoin="round" d="M18.194 30.68h10.774"/><ellipse cx="9" cy="9.108" rx="8" ry="8.066" fill="#fff" stroke="#F26422" stroke-width="2"/><path d="M9.24 11.546v1.287c0 .121.088.21.21.21h1.308c.121 0 .198-.089.198-.21v-1.287h.627a.207.207 0 0 0 .198-.209v-.935a.197.197 0 0 0-.198-.198h-.627V5.54a.197.197 0 0 0-.198-.198h-1.55c-.1 0-.177.033-.232.11L5.852 9.995a.791.791 0 0 0-.143.484v.858c0 .121.088.21.21.21H9.24zm0-4.125v2.783H7.337L9.24 7.421z" fill="#F26422"/></svg>