<svg width="47" height="49" fill="none" xmlns="http://www.w3.org/2000/svg"><path d="M46 26.112c0 11.706-9.41 21.181-21 21.181S4 37.818 4 26.112C4 14.406 13.41 4.93 25 4.93s21 9.476 21 21.182z" stroke="#F26422" stroke-width="2"/><path d="M25.002 30.858c2.598 0 4.705-2.124 4.705-4.744 0-2.62-2.107-4.744-4.705-4.744-2.599 0-4.705 2.124-4.705 4.744 0 2.62 2.106 4.744 4.705 4.744z" stroke="#F26422" stroke-width="2" stroke-miterlimit="10" stroke-linecap="round" stroke-linejoin="round"/><path d="M17.213 29.392l-3.364 1.401M19.04 32.157l-2.558 2.58M21.746 34l-1.389 3.354M25 34.627v3.649M28.254 34l1.389 3.354M30.996 32.157l2.559 2.58M32.824 29.392l3.327 1.401M33.445 26.112h3.62M32.824 22.868l3.327-1.4M30.996 20.104l2.559-2.58M28.254 18.26l1.389-3.39M25 17.597v-3.65M21.783 18.26l-1.39-3.39M19.04 20.104l-2.558-2.58M17.213 22.831l-3.364-1.4M16.555 26.112h-3.62" stroke="#3C3C3B" stroke-width="2" stroke-miterlimit="3.864" stroke-linecap="round"/><ellipse cx="9" cy="9.98" rx="8" ry="8.066" fill="#fff" stroke="#F26422" stroke-width="2"/><path d="M8.35 7.996v5.709c0 .12.098.209.197.209h1.276a.202.202 0 0 0 .21-.21V6.413a.207.207 0 0 0-.21-.198h-1c-.22 0-.33.033-.518.176L6.523 7.699a.237.237 0 0 0-.044.297l.54.737c.054.088.197.11.296.033l1.034-.77z" fill="#F26422"/></svg>