<svg width="47" height="48" fill="none" xmlns="http://www.w3.org/2000/svg"><path d="M46 25.53c0 11.707-9.41 21.182-21 21.182S4 37.237 4 25.531C4 13.825 13.41 4.349 25 4.349s21 9.476 21 21.182z" stroke="#F26422" stroke-width="2"/><path d="M12.935 24.589c10.687 0 8.863-10.445 21.33-7.985" stroke="#3C3C3B" stroke-width="2" stroke-miterlimit="3.864" stroke-linecap="round" stroke-linejoin="round"/><path d="M14.335 29.71c10.686 0 8.863-10.444 21.33-7.984" stroke="#F26422" stroke-width="2" stroke-miterlimit="3.864" stroke-linecap="round" stroke-linejoin="round"/><path d="M15.734 34.833c10.687 0 8.863-10.446 21.33-7.985" stroke="#3C3C3B" stroke-width="2" stroke-miterlimit="3.864" stroke-linecap="round" stroke-linejoin="round"/><ellipse cx="9" cy="9.399" rx="8" ry="8.066" fill="#fff" stroke="#F26422" stroke-width="2"/><path d="M7.095 9.736c0 .12.077.198.198.209 1.595.033 2.321.407 2.321 1.243 0 .572-.484.913-1.397.913a3.781 3.781 0 0 1-1.683-.385c-.143-.077-.286-.011-.297.132l-.088 1.078c-.01.099.044.176.143.22.627.22 1.353.319 2.09.319 1.914 0 2.97-.913 2.97-2.255 0-.781-.396-1.507-1.375-1.892.935-.352 1.265-1.001 1.265-1.793 0-1.188-.968-2.024-2.76-2.024a5.41 5.41 0 0 0-2.003.374c-.12.044-.176.132-.165.264l.077.924c.011.143.154.198.286.143a3.903 3.903 0 0 1 1.606-.341c.825 0 1.221.297 1.221.78 0 .705-.649 1.013-2.21 1.046a.197.197 0 0 0-.199.198v.847z" fill="#F26422"/></svg>