<svg width="47" height="49" fill="none" xmlns="http://www.w3.org/2000/svg"><path d="M25 34.58c1.2 0 2.172-.98 2.172-2.19A2.18 2.18 0 0 0 25 30.2c-1.2 0-2.172.98-2.172 2.19s.973 2.19 2.172 2.19z" stroke="#F26422" stroke-width="2" stroke-linecap="round" stroke-linejoin="round"/><path d="M28.293 27.91V13.658h-6.586v14.31c-.94.7-1.638 1.68-1.994 2.803a5.64 5.64 0 0 0 .015 3.45 5.593 5.593 0 0 0 2.018 2.784 5.519 5.519 0 0 0 6.508 0 5.593 5.593 0 0 0 2.018-2.785 5.64 5.64 0 0 0 .015-3.449 5.594 5.594 0 0 0-1.994-2.802v-.057z" stroke="#3C3C3B" stroke-width="2" stroke-linecap="round" stroke-linejoin="round"/><path d="M25 30.043V21.04M46 25.821c0 11.706-9.41 21.182-21 21.182S4 37.527 4 25.82C4 14.115 13.41 4.64 25 4.64s21 9.475 21 21.181z" stroke="#F26422" stroke-width="2" stroke-linecap="round" stroke-linejoin="round"/><ellipse cx="9" cy="9.689" rx="8" ry="8.066" fill="#fff" stroke="#F26422" stroke-width="2"/><path d="M11.077 13.623c.121 0 .198-.088.198-.209v-.935c0-.12-.077-.198-.198-.198H8.382c1.75-1.309 2.871-2.739 2.871-4.18 0-1.463-1.067-2.31-2.75-2.31-.737 0-1.452.165-2.013.44-.099.044-.154.121-.143.242l.066.946c.011.143.165.231.308.143a3.284 3.284 0 0 1 1.54-.407c.781 0 1.254.32 1.254.98 0 1.385-1.77 2.892-3.3 4.157a.292.292 0 0 0-.12.242v.88c0 .121.087.21.208.21h4.774z" fill="#F26422"/></svg>